
          <svg data-logo="logo" xmlns="http://www.w3.org/2000/svg" viewBox="0 0 296 43">
            <g id="logogram" transform="translate(0, 1) rotate(0)"><path fill-rule="evenodd" clip-rule="evenodd" d="M14.3966 6.66075L0.16687 20.7827C3.01308 23.6074 6.26443 25.988 9.80933 27.8505C10.7892 30.4299 12.325 32.8489 14.4169 34.9249C22.287 42.7353 35.0469 42.7353 42.9169 34.9249C45.0088 32.8489 46.5446 30.4299 47.5245 27.8503C51.0693 25.988 54.3207 23.6074 57.1669 20.7827L42.9486 6.67223C42.9381 6.66167 42.9276 6.65112 42.9169 6.64057C35.0469 -1.16991 22.287 -1.16991 14.4169 6.64057C14.4101 6.6473 14.4034 6.65402 14.3966 6.66075ZM41.5553 30.3983C37.4085 31.7872 33.0554 32.4985 28.6669 32.4985C24.2783 32.4985 19.9253 31.7872 15.7786 30.3983C16.2279 30.9899 16.7239 31.5576 17.2669 32.0965C23.5629 38.3449 33.7708 38.3449 40.0669 32.0965C40.6098 31.5576 41.106 30.9899 41.5553 30.3983ZM17.5591 9.18615C18.6283 9.88716 19.7652 10.487 20.9548 10.9761C23.3998 11.9812 26.0204 12.4985 28.6669 12.4985C31.3134 12.4985 33.934 11.9812 36.379 10.9761C37.5686 10.487 38.7054 9.88715 39.7747 9.18612C33.5572 3.3149 23.7766 3.31491 17.5591 9.18615Z" fill="#3B4158"/></g>
            <g id="logotype" transform="translate(64, 8.5)"><path fill="#000000" d="M14.75 17.84L6.28 1.43L12.96 1.43L18.91 14.27L16.61 14.27L22.52 1.43L29.14 1.43L20.66 17.84L20.66 26L14.75 26L14.75 17.84ZM36.45 26.25L36.45 26.25Q33.58 26.25 31.30 25.04Q29.03 23.83 27.72 21.55Q26.41 19.28 26.41 16.23L26.41 16.23Q26.41 13.15 27.73 10.91Q29.07 8.67 31.36 7.45Q33.65 6.22 36.52 6.22L36.52 6.22Q39.43 6.22 41.72 7.43Q44.01 8.64 45.34 10.90Q46.67 13.15 46.67 16.23L46.67 16.23Q46.67 19.28 45.31 21.55Q43.94 23.83 41.63 25.04Q39.32 26.25 36.45 26.25ZM36.45 21.13L36.45 21.13Q37.54 21.13 38.50 20.59Q39.46 20.05 40.05 18.96Q40.65 17.88 40.65 16.23L40.65 16.23Q40.65 14.55 40.05 13.49Q39.46 12.42 38.53 11.89Q37.61 11.37 36.52 11.37L36.52 11.37Q35.44 11.37 34.51 11.89Q33.58 12.42 33.00 13.49Q32.43 14.55 32.43 16.23L32.43 16.23Q32.43 17.88 32.97 18.96Q33.51 20.05 34.44 20.59Q35.37 21.13 36.45 21.13ZM61.93 23.02L61.93 23.02L61.93 6.47L67.84 6.47L67.84 26L64.91 26Q63.51 26 62.72 25.21Q61.93 24.43 61.93 23.02ZM55.95 26.25L55.95 26.25Q53.56 26.25 51.90 25.20Q50.24 24.14 49.37 22.25Q48.49 20.36 48.49 17.84L48.49 17.84L48.49 6.47L54.37 6.47L54.37 16.97Q54.37 19 55.40 20.12Q56.44 21.24 58.15 21.24L58.15 21.24Q59.34 21.24 60.18 20.64Q61.02 20.05 61.48 19Q61.93 17.95 61.93 16.62L61.93 16.62L62.73 17.63Q62.63 20.64 61.70 22.54Q60.78 24.43 59.27 25.34Q57.77 26.25 55.95 26.25ZM76.91 26L71.00 26L71.00 6.47L76.91 6.47L76.91 26ZM76.91 17.60L76.00 17.60L76.91 11.19Q77.54 8.92 79.12 7.61Q80.69 6.29 83.14 6.29L83.14 6.29L83.14 12.45Q82.76 12.38 82.41 12.35Q82.06 12.31 81.71 12.31L81.71 12.31Q80.41 12.31 79.33 12.93Q78.24 13.54 77.58 14.71Q76.91 15.88 76.91 17.60L76.91 17.60ZM89.72 26L83.42 1.43L89.79 1.43L94.06 22.85L92.52 22.85L97.81 1.43L104.32 1.43L109.36 22.88L107.82 22.88L112.12 1.43L118.49 1.43L112.05 26L104.91 26L100.54 8.04L101.38 8.04L96.83 26L89.72 26ZM128.26 26.25L128.26 26.25Q126.12 26.25 124.18 25.58Q122.24 24.91 120.75 23.64Q119.26 22.36 118.40 20.54Q117.55 18.72 117.55 16.38L117.55 16.38Q117.55 14.13 118.37 12.28Q119.19 10.42 120.61 9.06Q122.03 7.69 123.90 6.96Q125.77 6.22 127.87 6.22L127.87 6.22Q129.59 6.22 131.14 6.68Q132.70 7.13 133.94 8.01Q135.19 8.88 135.90 10.07Q136.62 11.26 136.62 12.73L136.62 12.73Q136.62 14.59 135.57 15.81Q134.52 17.04 132.82 17.74Q131.13 18.44 129.11 18.74Q127.10 19.04 125.14 19L125.14 19Q124.90 19 124.56 18.98Q124.23 18.96 123.95 18.95Q123.67 18.93 123.53 18.93L123.53 18.93Q123.74 19.73 124.42 20.38Q125.11 21.03 126.16 21.41Q127.21 21.80 128.33 21.80L128.33 21.80Q129.45 21.80 130.48 21.41Q131.51 21.03 132.35 20.43Q133.19 19.84 133.79 19.11L133.79 19.11L137.57 22.08Q136.52 23.48 135.01 24.41Q133.51 25.34 131.77 25.79Q130.04 26.25 128.26 26.25ZM125.18 15.11L125.18 15.11Q126.12 15.11 127.14 15.01Q128.15 14.90 129.01 14.64Q129.87 14.38 130.41 13.91Q130.95 13.43 130.95 12.70L130.95 12.70Q130.95 12.10 130.53 11.65Q130.11 11.19 129.41 10.95Q128.71 10.70 127.91 10.70L127.91 10.70Q126.51 10.70 125.46 11.37Q124.41 12.03 123.85 13.03Q123.29 14.03 123.22 15.04L123.22 15.04Q123.53 15.08 124.07 15.10Q124.62 15.11 125.18 15.11ZM146.39 26.25L146.39 26.25Q143.83 26.25 141.92 24.91Q140.02 23.59 138.98 21.33Q137.95 19.07 137.95 16.23L137.95 16.23Q137.95 13.43 138.98 11.16Q140.02 8.88 141.92 7.55Q143.83 6.22 146.39 6.22L146.39 6.22Q148.63 6.22 150.29 7.43Q151.95 8.64 152.62 10.81L152.62 10.81L152.62 6.47L158.53 6.47L158.53 26L155.63 26Q154.23 26 153.42 25.21Q152.62 24.43 152.62 23.02L152.62 23.02L152.62 21.70Q151.95 23.83 150.29 25.04Q148.63 26.25 146.39 26.25ZM148.31 21.06L148.31 21.06Q149.47 21.06 150.45 20.50Q151.43 19.95 152.02 18.86Q152.62 17.77 152.62 16.23L152.62 16.23Q152.62 14.73 152.02 13.64Q151.43 12.56 150.45 11.96Q149.47 11.37 148.31 11.37L148.31 11.37Q147.12 11.37 146.14 11.96Q145.16 12.56 144.58 13.64Q144.01 14.73 144.01 16.23L144.01 16.23Q144.01 17.77 144.58 18.86Q145.16 19.95 146.16 20.50Q147.16 21.06 148.31 21.06ZM170.01 26.25L170.01 26.25Q166.79 26.25 165.08 24.48Q163.36 22.71 163.36 19.35L163.36 19.35L163.36 11.26L160.25 11.26L160.25 6.47L173.16 6.47L173.16 11.26L169.28 11.26L169.28 19.42Q169.28 20.26 169.82 20.73Q170.36 21.20 171.13 21.20L171.13 21.20Q171.48 21.20 171.78 21.12Q172.08 21.03 172.36 20.86L172.36 20.86L173.83 25.20Q172.99 25.65 172.06 25.95Q171.13 26.25 170.01 26.25ZM167.07 6.47L161.79 8.04L161.79 6.47Q162.56 6.47 163.05 5.98Q163.54 5.49 163.54 4.72L163.54 4.72L163.54 1.71L169.28 1.71L169.28 3.81Q169.28 4.30 169.03 4.88Q168.79 5.45 168.28 5.89Q167.77 6.33 167.07 6.47L167.07 6.47ZM181.84 26L175.93 26L175.93 0.10L181.84 0.10L181.84 10.63Q182.26 9.27 183.21 8.29Q184.15 7.31 185.39 6.77Q186.64 6.22 187.97 6.22L187.97 6.22Q190.21 6.22 191.85 7.24Q193.50 8.25 194.41 10.11Q195.32 11.96 195.32 14.52L195.32 14.52L195.32 26L189.40 26L189.40 15.50Q189.40 13.50 188.39 12.37Q187.37 11.23 185.66 11.23L185.66 11.23Q184.50 11.23 183.64 11.82Q182.79 12.42 182.31 13.47Q181.84 14.52 181.84 15.85L181.84 15.85L181.84 26ZM207.81 26.25L207.81 26.25Q205.68 26.25 203.73 25.58Q201.79 24.91 200.30 23.64Q198.82 22.36 197.96 20.54Q197.10 18.72 197.10 16.38L197.10 16.38Q197.10 14.13 197.92 12.28Q198.75 10.42 200.16 9.06Q201.58 7.69 203.45 6.96Q205.33 6.22 207.43 6.22L207.43 6.22Q209.14 6.22 210.70 6.68Q212.26 7.13 213.50 8.01Q214.74 8.88 215.46 10.07Q216.18 11.26 216.18 12.73L216.18 12.73Q216.18 14.59 215.13 15.81Q214.08 17.04 212.38 17.74Q210.68 18.44 208.67 18.74Q206.66 19.04 204.70 19L204.70 19Q204.45 19 204.12 18.98Q203.79 18.96 203.51 18.95Q203.23 18.93 203.09 18.93L203.09 18.93Q203.30 19.73 203.98 20.38Q204.66 21.03 205.71 21.41Q206.76 21.80 207.88 21.80L207.88 21.80Q209.00 21.80 210.03 21.41Q211.07 21.03 211.91 20.43Q212.75 19.84 213.34 19.11L213.34 19.11L217.12 22.08Q216.07 23.48 214.57 24.41Q213.06 25.34 211.33 25.79Q209.60 26.25 207.81 26.25ZM204.73 15.11L204.73 15.11Q205.68 15.11 206.69 15.01Q207.71 14.90 208.56 14.64Q209.42 14.38 209.96 13.91Q210.51 13.43 210.51 12.70L210.51 12.70Q210.51 12.10 210.09 11.65Q209.67 11.19 208.97 10.95Q208.27 10.70 207.46 10.70L207.46 10.70Q206.06 10.70 205.01 11.37Q203.96 12.03 203.40 13.03Q202.84 14.03 202.77 15.04L202.77 15.04Q203.09 15.08 203.63 15.10Q204.17 15.11 204.73 15.11ZM224.61 26L218.70 26L218.70 6.47L224.61 6.47L224.61 26ZM224.61 17.60L223.70 17.60L224.61 11.19Q225.24 8.92 226.82 7.61Q228.39 6.29 230.84 6.29L230.84 6.29L230.84 12.45Q230.46 12.38 230.11 12.35Q229.76 12.31 229.41 12.31L229.41 12.31Q228.11 12.31 227.03 12.93Q225.94 13.54 225.28 14.71Q224.61 15.88 224.61 17.60L224.61 17.60Z"/></g>
            
          </svg>
        